<svg width="68" height="54" viewBox="0 0 68 54" fill="none" xmlns="http://www.w3.org/2000/svg">
<path d="M11.8522 4.25879C13.4949 2.02946 15.3135 0.797458 17.3082 0.562787C19.3029 0.328123 21.0042 0.738792 22.4122 1.79479C23.9375 2.73346 24.7589 4.20013 24.8762 6.19479C25.1109 8.18946 24.2895 10.3015 22.4122 12.5308C19.7135 15.6988 17.8949 18.8668 16.9562 22.0348C16.0175 25.2028 15.5482 28.0188 15.5482 30.4828L14.8442 23.4428C19.5375 23.4428 23.3509 24.7921 26.2842 27.4908C29.2175 30.1895 30.6842 33.8268 30.6842 38.4028C30.6842 42.7441 29.3349 46.3228 26.6362 49.1388C23.9375 51.8375 20.2415 53.1868 15.5482 53.1868C10.7375 53.1868 6.98285 51.6028 4.28419 48.4348C1.58552 45.1495 0.236188 40.6321 0.236188 34.8828C0.236188 31.8321 0.529521 28.7228 1.11619 25.5548C1.70285 22.2695 2.81752 18.9255 4.46019 15.5228C6.22019 12.0028 8.68419 8.24812 11.8522 4.25879ZM49.1642 4.25879C50.8069 2.02946 52.6255 0.797458 54.6202 0.562787C56.6149 0.328123 58.3162 0.738792 59.7242 1.79479C61.2495 2.73346 62.0709 4.20013 62.1882 6.19479C62.4229 8.18946 61.6015 10.3015 59.7242 12.5308C57.0255 15.6988 55.2069 18.8668 54.2682 22.0348C53.3295 25.2028 52.8602 28.0188 52.8602 30.4828L52.1562 23.4428C56.8495 23.4428 60.6629 24.7921 63.5962 27.4908C66.5295 30.1895 67.9962 33.8268 67.9962 38.4028C67.9962 42.7441 66.6469 46.3228 63.9482 49.1388C61.2495 51.8375 57.5535 53.1868 52.8602 53.1868C48.0495 53.1868 44.2949 51.6028 41.5962 48.4348C38.8975 45.1495 37.5482 40.6321 37.5482 34.8828C37.5482 31.8321 37.8415 28.7228 38.4282 25.5548C39.0149 22.2695 40.1295 18.9255 41.7722 15.5228C43.5322 12.0028 45.9962 8.24812 49.1642 4.25879Z" fill="white"/>
</svg>
